<svg version="1.2" xmlns="http://www.w3.org/2000/svg" viewBox="0 0 121 121" width="121" height="121"><style>.a{fill:#bac4c6}.b{fill:#fff}.c{fill:#252b35}</style><path class="a" d="m111.6 55.2h-2.4c-0.5-3.2-1.4-6.3-2.7-9.2-1.3-2.9-3-5.6-5-8.1-2-2.5-4.3-4.7-6.9-6.5-2.6-1.9-5.4-3.4-8.4-4.5-2.1-8-7.4-12.1-10.3-13.1q-0.4-0.1-0.7-0.1-0.4 0.1-0.7 0.3-0.3 0.2-0.4 0.5-0.2 0.4-0.2 0.7v9.5h-28.2c-3.7 0-7.3 0.6-10.7 1.7-3.5 1.1-6.8 2.7-9.8 4.8-2.9 2.1-5.6 4.6-7.8 7.5-2.2 2.8-4 6-5.2 9.5q-0.1 0.3-0.3 0.6-0.3 0.9-0.5 1.7-0.1 0.2-0.1 0.3-0.1 0.2-0.1 0.4-0.1 0.2-0.1 0.3-0.1 0.3-0.1 0.5-0.1 0.2-0.2 0.5 0 0.3-0.1 0.5 0 0.2-0.1 0.4 0 0.2 0 0.4-0.1 0.2-0.1 0.5-0.1 0.1-0.1 0.3-0.1 0.4-0.1 0.7 0 0.2 0 0.3-0.1 0.3-0.1 0.6 0 0.1-0.1 0.3 0 0.2 0 0.5 0 0.1-0.1 0.3 0 0.4 0 0.8 0 0 0 0.1-0.1 0.4-0.1 0.7 0 0.2 0 0.3 0 0.3 0 0.6 0 0.1 0 0.2 0 0.5 0 0.9c0 20.5 10.3 37.1 13.9 42.2q0.2 0.4 0.6 0.7 0.3 0.3 0.7 0.5 0.4 0.2 0.8 0.3 0.5 0.1 0.9 0.1h7.6q0.7 0 1.4-0.3 0.7-0.3 1.2-0.8 0.6-0.5 0.8-1.2 0.3-0.7 0.3-1.5v-4.6q1 0.2 1.9 0.3 0.9 0.2 1.9 0.3 0.9 0.1 1.9 0.1 0.9 0.1 1.9 0.1h18.8v3.8q0 0.8 0.3 1.5 0.3 0.7 0.8 1.2 0.5 0.5 1.2 0.8 0.7 0.3 1.5 0.3h8.2q0.7 0 1.3-0.2 0.6-0.2 1.1-0.6 0.5-0.4 0.8-1 0.4-0.6 0.5-1.2l1.1-5.4c2.9-0.6 5.7-1.6 8.4-2.9 2.6-1.4 5.1-3 7.3-4.9 2.2-1.9 4.2-4.1 6-6.5 1.7-2.4 3.1-5 4.2-7.8h4.4q0.7 0 1.4-0.3 0.7-0.3 1.2-0.8 0.6-0.5 0.9-1.2 0.2-0.7 0.2-1.5v-11.4q0-0.8-0.2-1.5-0.3-0.7-0.9-1.2-0.5-0.5-1.2-0.8-0.7-0.3-1.4-0.3z"/><path class="b" d="m60.1 68.4q0.3-0.2 0.5-0.5 0.2-0.3 0.4-0.6 0.2-0.3 0.3-0.6 0.1-0.3 0.1-0.6 0-0.1 0.1-0.2 0-0.1 0.1-0.1 0-0.1 0.1-0.1 0.1 0 0.2 0l3.3 0.6q0.1 0 0.2 0 0.1 0.1 0.1 0.1 0.1 0.1 0.1 0.2 0 0.1 0 0.2-0.1 0.7-0.3 1.3-0.2 0.6-0.6 1.2-0.3 0.6-0.8 1.1-0.4 0.5-0.9 0.9-0.6 0.4-1.3 0.7-0.6 0.3-1.3 0.6-0.7 0.2-1.4 0.3-0.7 0-1.5 0-0.5 0-1.1 0-0.5-0.1-1.1-0.2-0.5-0.1-1-0.3-0.5-0.2-1-0.4-0.5-0.3-0.9-0.6-0.4-0.3-0.7-0.6-0.4-0.4-0.7-0.8-0.3-0.4-0.6-0.8-0.2-0.5-0.4-1-0.2-0.5-0.4-1-0.1-0.5-0.2-1 0-0.6 0-1.1v-1.8q0 0 0-0.1 0 0 0 0-0.1-0.1-0.1-0.1 0 0-0.1 0h-2.4q0 0-0.1 0-0.1-0.1-0.2-0.1 0-0.1-0.1-0.2 0 0 0-0.1v-1.4q0-0.1 0-0.2 0.1-0.1 0.1-0.2 0.1 0 0.2-0.1 0.1 0 0.1 0h2.4q0.1 0 0.1 0 0 0 0.1 0 0-0.1 0-0.1 0 0 0-0.1v-1.5q0 0 0-0.1 0 0 0 0-0.1-0.1-0.1-0.1 0 0-0.1 0h-2.4q0 0-0.1 0-0.1 0-0.2-0.1 0-0.1-0.1-0.2 0 0 0-0.1v-1.4q0-0.1 0-0.2 0.1-0.1 0.1-0.2 0.1 0 0.2 0 0.1-0.1 0.1-0.1h2.4q0.1 0 0.1 0 0 0 0.1 0 0-0.1 0-0.1 0 0 0-0.1v-1.8q0-0.5 0-1 0.1-0.6 0.2-1.1 0.2-0.5 0.4-1 0.1-0.5 0.4-1 0.2-0.4 0.6-0.8 0.3-0.4 0.6-0.8 0.4-0.3 0.8-0.6 0.4-0.3 0.9-0.5 0.5-0.3 1-0.5 0.5-0.1 1-0.3 0.6-0.1 1.1-0.1 0.6-0.1 1.1-0.1 0.8 0 1.5 0.1 0.7 0.1 1.4 0.3 0.7 0.2 1.4 0.5 0.6 0.4 1.2 0.8 0.6 0.4 1 0.9 0.5 0.5 0.8 1.1 0.3 0.6 0.5 1.2 0.2 0.7 0.3 1.4 0 0.1 0 0.2 0 0.1-0.1 0.1 0 0.1-0.1 0.1-0.1 0.1-0.2 0.1l-3.3 0.4h-0.1q-0.3 0-0.4-0.4-0.1-0.3-0.2-0.7-0.1-0.3-0.2-0.6-0.2-0.3-0.4-0.5-0.2-0.3-0.5-0.5-0.3-0.2-0.6-0.4-0.3-0.1-0.6-0.3-0.3-0.1-0.7-0.1-0.3-0.1-0.7 0-0.4-0.1-0.7 0-0.4 0.1-0.8 0.2-0.4 0.2-0.7 0.4-0.3 0.2-0.6 0.5-0.3 0.3-0.5 0.6-0.2 0.4-0.3 0.7-0.2 0.4-0.2 0.8-0.1 0.4-0.1 0.8v1.9q0 0.1 0 0.1 0 0 0.1 0.1 0 0 0 0 0.1 0 0.1 0h7.8q0 0 0.1 0 0 0 0.1 0.1 0 0 0 0 0.1 0 0.1 0.1 0 0 0.1 0.1 0 0 0 0 0 0.1 0 0.1 0 0.1-0.1 0.1l-0.4 1.5q0 0-0.1 0.1 0 0.1-0.1 0.1 0 0.1-0.1 0.1-0.1 0-0.2 0h-7.2q0 0-0.1 0 0 0 0 0.1 0 0-0.1 0 0 0.1 0 0.1v1.5q0 0.1 0 0.1 0.1 0 0.1 0.1 0 0 0 0 0.1 0 0.1 0h6.5q0.1 0 0.1 0 0.1 0 0.1 0 0.1 0.1 0.1 0.1 0 0 0.1 0.1 0 0 0 0 0 0.1 0 0.1 0 0.1 0 0.1 0 0.1 0 0.1l-0.4 1.4q0 0.1-0.1 0.2 0 0.1-0.1 0.1-0.1 0.1-0.1 0.1-0.1 0-0.2 0h-6q0 0-0.1 0 0 0 0 0.1 0 0-0.1 0 0 0.1 0 0.1v2q0 0.4 0.1 0.8 0 0.3 0.2 0.7 0.1 0.4 0.3 0.7 0.2 0.4 0.5 0.7 0.3 0.2 0.6 0.5 0.3 0.2 0.7 0.3 0.4 0.2 0.8 0.2 0.3 0.1 0.7 0.1 0.4 0 0.7-0.1 0.4 0 0.7-0.1 0.4-0.1 0.7-0.3 0.3-0.2 0.5-0.4z"/><path class="b" d="m50.1 34.1c-7.1 0-12.7-5.7-12.7-12.7 0-7 5.6-12.7 12.7-12.7 7 0 12.7 5.7 12.7 12.7 0 7-5.7 12.7-12.7 12.7z"/><path fill-rule="evenodd" class="c" d="m50.1 35.8c-5.9 0-11.1-3.5-13.3-8.9-2.3-5.4-1-11.6 3.1-15.7 4.1-4.1 10.3-5.3 15.7-3.1 5.4 2.2 8.9 7.5 8.9 13.3 0 1.9-0.4 3.8-1.1 5.5-0.7 1.8-1.8 3.4-3.1 4.7-1.4 1.3-3 2.4-4.7 3.1-1.8 0.7-3.6 1.1-5.5 1.1zm0-25.4c-4.5 0-8.5 2.7-10.2 6.8-1.7 4.1-0.8 8.9 2.4 12 3.1 3.2 7.9 4.1 12 2.4 4.1-1.7 6.8-5.7 6.8-10.2 0-1.4-0.3-2.9-0.8-4.2-0.6-1.3-1.4-2.6-2.4-3.6-1.1-1-2.3-1.8-3.6-2.4-1.3-0.5-2.8-0.8-4.2-0.8z"/><path class="c" d="m51.7 24.8q0.1-0.1 0.2-0.2 0.1-0.1 0.1-0.2 0.1-0.2 0.1-0.3 0.1-0.1 0.1-0.3 0 0 0 0 0-0.1 0.1-0.1 0 0 0 0 0.1 0 0.1 0l1.3 0.2q0 0 0.1 0.1 0 0 0 0 0 0 0 0.1 0 0 0 0 0 0.3-0.1 0.5-0.1 0.3-0.2 0.5-0.1 0.2-0.3 0.4-0.2 0.2-0.4 0.4-0.2 0.2-0.5 0.3-0.2 0.1-0.5 0.2-0.3 0.1-0.6 0.1-0.2 0.1-0.5 0-0.3 0-0.5 0-0.2 0-0.4 0-0.2-0.1-0.4-0.2-0.2 0-0.4-0.1-0.2-0.1-0.3-0.2-0.2-0.2-0.3-0.3-0.2-0.1-0.3-0.3-0.1-0.1-0.2-0.3-0.1-0.2-0.2-0.4-0.1-0.2-0.1-0.4-0.1-0.2-0.1-0.4 0-0.2 0-0.4v-0.7q0-0.1 0-0.1 0 0 0 0-0.1 0-0.1 0 0 0 0 0h-0.9q-0.1 0-0.1 0 0 0-0.1-0.1 0 0 0 0 0-0.1 0-0.1v-0.5q0-0.1 0-0.1 0 0 0-0.1 0.1 0 0.1 0 0 0 0.1 0h0.9q0 0 0 0 0 0 0.1 0 0 0 0-0.1 0 0 0 0v-0.6q0 0 0 0 0 0 0 0-0.1-0.1-0.1-0.1 0 0 0 0h-0.9q-0.1 0-0.1 0 0 0-0.1 0 0 0 0-0.1 0 0 0 0v-0.6q0 0 0-0.1 0 0 0 0 0.1 0 0.1-0.1 0 0 0.1 0h0.9q0 0 0 0 0 0 0.1 0 0 0 0 0 0 0 0 0v-0.8q0-0.2 0-0.4 0-0.2 0.1-0.4 0-0.2 0.1-0.4 0.1-0.2 0.2-0.4 0.1-0.1 0.2-0.3 0.1-0.2 0.2-0.3 0.2-0.1 0.4-0.2 0.1-0.2 0.3-0.2 0.2-0.1 0.4-0.2 0.2-0.1 0.4-0.1 0.2-0.1 0.4-0.1 0.3 0 0.5 0 0.3 0 0.5 0 0.3 0 0.6 0.1 0.3 0.1 0.5 0.2 0.3 0.2 0.5 0.3 0.2 0.2 0.4 0.4 0.2 0.2 0.3 0.4 0.2 0.3 0.2 0.5 0.1 0.3 0.2 0.5v0.1q0 0-0.1 0 0 0.1 0 0.1 0 0 0 0-0.1 0-0.1 0l-1.3 0.2h-0.1q-0.1 0-0.1-0.2 0-0.1-0.1-0.2 0-0.1-0.1-0.3 0-0.1-0.1-0.2-0.1-0.1-0.2-0.2-0.1 0-0.2-0.1-0.2-0.1-0.3-0.1-0.1-0.1-0.3-0.1-0.1 0-0.2 0-0.2 0-0.3 0-0.2 0.1-0.3 0.1-0.2 0.1-0.3 0.2-0.1 0-0.2 0.1-0.1 0.2-0.2 0.3-0.1 0.1-0.2 0.3 0 0.1 0 0.3-0.1 0.1-0.1 0.3v0.8q0 0 0 0 0 0 0.1 0 0 0 0 0 0 0 0 0h3.1q0 0 0 0 0 0 0 0 0.1 0.1 0.1 0.1 0 0 0 0 0 0 0 0 0 0 0 0.1 0 0 0 0 0 0 0 0l-0.2 0.6q0 0 0 0.1 0 0 0 0-0.1 0-0.1 0 0 0-0.1 0h-2.8q0 0 0 0 0 0 0 0.1-0.1 0-0.1 0 0 0 0 0v0.6q0 0 0 0 0 0.1 0.1 0.1 0 0 0 0 0 0 0 0h2.6q0 0 0 0 0 0 0 0 0.1 0 0.1 0 0 0 0 0 0 0.1 0 0.1 0 0 0 0 0 0 0 0 0 0.1 0 0.1l-0.2 0.5q0 0.1 0 0.1 0 0 0 0 0 0.1-0.1 0.1 0 0 0 0h-2.4q0 0 0 0 0 0 0 0-0.1 0-0.1 0 0 0 0 0.1v0.7q0 0.2 0.1 0.3 0 0.2 0 0.3 0.1 0.2 0.2 0.3 0.1 0.2 0.2 0.3 0.1 0.1 0.2 0.2 0.1 0.1 0.3 0.1 0.1 0.1 0.3 0.1 0.1 0 0.3 0 0.1 0 0.2 0 0.2 0 0.3-0.1 0.1 0 0.3-0.1 0.1 0 0.2-0.1z"/><path class="a" d="m34.4 32.4h38.2v11.2h-38.2z"/><path class="b" d="m36.7 33h27.9"/><path class="c" d="m64.6 34.7h-27.9c-0.4 0-0.9-0.2-1.2-0.5-0.3-0.4-0.5-0.8-0.5-1.2 0-0.5 0.2-0.9 0.5-1.2 0.3-0.3 0.8-0.5 1.2-0.5h27.9c0.5 0 0.9 0.2 1.2 0.5 0.3 0.3 0.5 0.7 0.5 1.2 0 0.4-0.2 0.8-0.5 1.2-0.3 0.3-0.7 0.5-1.2 0.5z"/><path class="c" d="m88.8 44.3c-1.3 0-2.3-1.1-2.3-2.4 0-1.2 1-2.3 2.3-2.3 1.3 0 2.3 1.1 2.3 2.3 0 1.3-1 2.4-2.3 2.4z"/><path class="b" d="m8.5 80l42.5-8.3 2.7 0.7 1.4 2.6 4.7 27-3 2.4-42.1 7.6-2.8-1.4-0.6-3.3-4.7-25.7z"/><path fill-rule="evenodd" class="c" d="m61.4 99.5q0.2 1 0 2-0.2 1.1-0.8 1.9-0.6 0.9-1.5 1.5-0.8 0.5-1.8 0.8l-41.2 8q-1 0.2-2.1 0-1-0.3-1.9-0.8-0.8-0.6-1.4-1.5-0.6-0.9-0.8-1.9l-4.8-24.8q-0.2-1 0-2 0.2-1 0.8-1.9 0.6-0.9 1.5-1.5 0.8-0.5 1.9-0.7l41.1-8q1-0.2 2.1 0 1 0.2 1.9 0.8 0.8 0.5 1.4 1.4 0.6 0.9 0.8 1.9zm-7.4-24.3q-0.1-0.5-0.4-0.9-0.3-0.5-0.7-0.7-0.5-0.3-1-0.4-0.5-0.1-1 0l-41.2 8q-0.5 0.1-0.9 0.4-0.4 0.2-0.7 0.7-0.3 0.4-0.4 0.9-0.1 0.5 0 1l4.8 24.8q0.1 0.5 0.4 1 0.3 0.4 0.7 0.7 0.4 0.3 0.9 0.4 0.5 0.1 1.1 0l41.1-8q0.5-0.1 1-0.4 0.4-0.3 0.7-0.7 0.3-0.5 0.4-1 0.1-0.5 0-1z"/><path fill-rule="evenodd" class="c" d="m22.8 91.2q0.1 0.2 0 0.5 0 0.3-0.2 0.5-0.1 0.2-0.3 0.3-0.3 0.2-0.5 0.2l-8.5 1.7q-0.3 0-0.5 0-0.3-0.1-0.5-0.2-0.2-0.2-0.4-0.4-0.1-0.2-0.2-0.5l-1.6-8.5q-0.1-0.2 0-0.5 0-0.2 0.2-0.5 0.1-0.2 0.3-0.3 0.3-0.2 0.5-0.2l8.5-1.7q0.3 0 0.5 0 0.3 0.1 0.5 0.2 0.2 0.2 0.4 0.4 0.1 0.2 0.2 0.5zm-8.8 0.2l5.9-1.1-1.1-5.9-6 1.2z"/><path class="c" d="m52.7 90.5l-38.7 7.5c-0.4 0.1-0.7 0.3-0.9 0.5-0.2 0.3-0.3 0.7-0.2 1 0.1 0.4 0.3 0.7 0.6 0.9 0.3 0.2 0.6 0.3 1 0.2l38.7-7.5c0.3-0.1 0.6-0.3 0.8-0.6 0.2-0.3 0.2-0.6 0.2-1-0.1-0.3-0.3-0.6-0.6-0.8-0.2-0.2-0.6-0.3-0.9-0.2z"/><path class="c" d="m53.7 95.8l-38.7 7.5c-0.3 0.1-0.7 0.2-0.9 0.5-0.2 0.3-0.2 0.7-0.2 1 0.1 0.4 0.3 0.7 0.6 0.9 0.3 0.2 0.7 0.3 1 0.2l38.7-7.6c0.3 0 0.6-0.2 0.8-0.5 0.2-0.3 0.3-0.7 0.2-1-0.1-0.3-0.2-0.6-0.5-0.8-0.3-0.2-0.7-0.3-1-0.2z"/></svg>