<svg version="1.2" xmlns="http://www.w3.org/2000/svg" viewBox="0 0 121 121" width="121" height="121"><style>.a{fill:#fff}.b{fill:#252b35}.c{fill:#bac4c6}</style><path class="a" d="m74.7 43.5c-7.3 0-13.2-5.9-13.2-13.2 0-7.2 5.9-13.1 13.2-13.1 7.3 0 13.2 5.9 13.2 13.1 0 7.3-5.9 13.2-13.2 13.2z"/><path fill-rule="evenodd" class="b" d="m74.7 45.2c-6 0-11.4-3.6-13.7-9.2-2.3-5.5-1.1-11.9 3.2-16.2 4.2-4.2 10.6-5.5 16.2-3.2 5.5 2.3 9.1 7.7 9.1 13.7 0 2-0.4 3.9-1.1 5.7-0.8 1.8-1.8 3.5-3.2 4.8-1.4 1.4-3 2.5-4.8 3.3-1.8 0.7-3.8 1.1-5.7 1.1zm0-26.4c-4.7 0-8.9 2.8-10.6 7.1-1.8 4.3-0.8 9.3 2.5 12.6 3.2 3.3 8.2 4.2 12.5 2.5 4.3-1.8 7.1-6 7.1-10.7 0-1.5-0.3-3-0.9-4.4-0.6-1.4-1.4-2.6-2.5-3.7-1.1-1.1-2.3-1.9-3.7-2.5-1.4-0.6-2.9-0.9-4.4-0.9z"/><path class="b" d="m76.4 33.8q0.1-0.1 0.2-0.2 0-0.1 0.1-0.2 0.1-0.1 0.1-0.3 0.1-0.1 0.1-0.2 0-0.1 0-0.1 0 0 0-0.1 0.1 0 0.1 0 0.1 0 0.1 0l1.3 0.3q0.1 0 0.1 0 0 0 0.1 0 0 0.1 0 0.1 0 0 0 0.1-0.1 0.2-0.1 0.5-0.1 0.2-0.3 0.5-0.1 0.2-0.3 0.4-0.2 0.2-0.4 0.4-0.2 0.2-0.5 0.3-0.3 0.1-0.5 0.2-0.3 0.1-0.6 0.1-0.3 0.1-0.6 0.1-0.2 0-0.4-0.1-0.3 0-0.5 0-0.2-0.1-0.4-0.2-0.2 0-0.4-0.1-0.2-0.1-0.4-0.2-0.1-0.2-0.3-0.3-0.1-0.2-0.3-0.3-0.1-0.2-0.2-0.4-0.1-0.1-0.2-0.3-0.1-0.3-0.1-0.5-0.1-0.2-0.1-0.4 0-0.2 0-0.4v-0.8q0 0 0 0 0 0 0 0 0 0-0.1 0 0 0 0 0h-0.9q-0.1 0-0.1 0-0.1-0.1-0.1-0.1 0 0 0 0 0-0.1 0-0.1v-0.6q0 0 0-0.1 0 0 0 0 0 0 0.1-0.1 0 0 0.1 0h0.9q0 0 0 0 0.1 0 0.1 0 0 0 0 0 0 0 0 0v-0.7q0 0 0 0 0 0 0 0 0 0-0.1 0 0 0 0 0h-0.9q-0.1 0-0.1-0.1-0.1 0-0.1 0 0 0 0-0.1 0 0 0 0v-0.6q0 0 0-0.1 0 0 0 0 0-0.1 0.1-0.1 0 0 0.1 0h0.9q0 0 0 0 0.1 0 0.1 0 0 0 0 0 0 0 0-0.1v-0.7q0-0.2 0-0.4 0-0.2 0.1-0.5 0-0.2 0.1-0.4 0.1-0.2 0.2-0.4 0.1-0.1 0.2-0.3 0.2-0.2 0.3-0.3 0.1-0.2 0.3-0.3 0.2-0.1 0.4-0.2 0.2-0.1 0.4-0.2 0.2 0 0.4-0.1 0.2 0 0.5-0.1 0.2 0 0.4 0 0.3 0 0.6 0.1 0.3 0 0.6 0.1 0.3 0.1 0.5 0.2 0.3 0.1 0.5 0.3 0.3 0.2 0.4 0.4 0.2 0.2 0.4 0.4 0.1 0.3 0.2 0.5 0.1 0.3 0.1 0.6 0 0 0 0.1 0 0 0 0-0.1 0-0.1 0.1 0 0-0.1 0l-1.3 0.2h-0.1q-0.1 0-0.1-0.2 0-0.1-0.1-0.3 0-0.1-0.1-0.2-0.1-0.1-0.1-0.3-0.1-0.1-0.2-0.1-0.2-0.1-0.3-0.2-0.1-0.1-0.2-0.1-0.2-0.1-0.3-0.1-0.2 0-0.3 0-0.2 0-0.3 0-0.2 0.1-0.3 0.1-0.2 0.1-0.3 0.2-0.1 0-0.2 0.2-0.2 0.1-0.2 0.2-0.1 0.2-0.2 0.3 0 0.2-0.1 0.3 0 0.2 0 0.4v0.8q0 0 0 0 0 0 0 0 0 0 0.1 0 0 0 0 0h3.2q0 0 0 0 0 0 0 0 0 0 0.1 0.1 0 0 0 0 0 0 0 0 0 0 0 0.1 0 0 0 0 0 0 0 0l-0.2 0.6q0 0 0 0.1 0 0 0 0-0.1 0-0.1 0.1 0 0-0.1 0h-2.9q0 0 0 0-0.1 0-0.1 0 0 0 0 0 0 0 0 0v0.7q0 0 0 0 0 0 0 0 0 0 0.1 0 0 0 0 0h2.6q0.1 0 0.1 0 0 0 0 0 0 0.1 0.1 0.1 0 0 0 0 0 0 0 0 0 0 0 0.1 0 0 0 0 0 0 0 0l-0.2 0.6q0 0.1 0 0.1 0 0 0 0-0.1 0.1-0.1 0.1 0 0-0.1 0h-2.4q0 0 0 0-0.1 0-0.1 0 0 0 0 0 0 0 0 0v0.8q0 0.2 0 0.4 0.1 0.1 0.1 0.3 0.1 0.1 0.2 0.3 0 0.1 0.2 0.2 0.1 0.1 0.2 0.2 0.1 0.1 0.3 0.2 0.1 0 0.3 0.1 0.1 0 0.3 0 0.1 0 0.3 0 0.1-0.1 0.3-0.1 0.1-0.1 0.2-0.1 0.2-0.1 0.3-0.2z"/><path class="c" d="m92.5 24.3c11 11.7 13.9 29 7.5 43.7-6.5 14.8-21.1 24.4-37.2 24.3-16.2 0-30.7-9.7-37.1-24.6-6.3-14.8-3.2-32 7.9-43.7"/><path class="a" d="m65.5 57.1q0.2-0.2 0.4-0.4 0.2-0.2 0.3-0.5 0.2-0.2 0.2-0.5 0.1-0.3 0.2-0.6 0 0 0-0.1 0-0.1 0.1-0.1 0.1-0.1 0.1-0.1 0.1 0 0.2 0l2.8 0.5q0.1 0 0.2 0.1 0 0 0.1 0.1 0 0 0 0.1 0 0.1 0 0.2-0.1 0.5-0.2 1.1-0.2 0.5-0.5 1-0.3 0.5-0.7 0.9-0.4 0.4-0.8 0.8-0.5 0.4-1.1 0.6-0.5 0.3-1.1 0.5-0.6 0.2-1.2 0.2-0.6 0.1-1.2 0.1-0.5 0-1 0-0.4-0.1-0.9-0.2-0.5-0.1-0.9-0.3-0.4-0.1-0.9-0.3-0.3-0.2-0.7-0.5-0.3-0.2-0.7-0.5-0.3-0.3-0.5-0.7-0.3-0.3-0.5-0.7-0.2-0.4-0.4-0.8-0.2-0.4-0.3-0.9-0.1-0.4-0.1-0.9-0.1-0.4-0.1-0.9v-1.5q0 0 0-0.1 0 0 0 0 0 0-0.1-0.1 0 0 0 0h-2.1q0 0-0.1 0-0.1 0-0.1-0.1-0.1 0-0.1-0.1 0-0.1 0-0.1v-1.2q0-0.1 0-0.2 0-0.1 0.1-0.1 0-0.1 0.1-0.1 0.1 0 0.1 0h2.1q0 0 0 0 0.1 0 0.1-0.1 0 0 0 0 0 0 0-0.1v-1.3q0 0 0 0 0-0.1 0-0.1 0 0-0.1 0 0 0 0 0h-2.1q0 0-0.1-0.1-0.1 0-0.1 0-0.1-0.1-0.1-0.2 0 0 0-0.1v-1.2q0-0.1 0-0.2 0 0 0.1-0.1 0 0 0.1-0.1 0.1 0 0.1 0h2.1q0 0 0 0 0.1 0 0.1 0 0-0.1 0-0.1 0 0 0 0v-1.6q0-0.5 0.1-0.9 0-0.5 0.1-0.9 0.1-0.4 0.3-0.9 0.2-0.4 0.4-0.8 0.2-0.4 0.5-0.7 0.2-0.3 0.5-0.6 0.3-0.3 0.7-0.6 0.3-0.2 0.7-0.4 0.4-0.2 0.9-0.4 0.4-0.2 0.9-0.3 0.4-0.1 0.9-0.1 0.5-0.1 1-0.1 0.6 0 1.2 0.1 0.6 0.1 1.2 0.3 0.6 0.2 1.2 0.4 0.5 0.3 1 0.7 0.5 0.3 0.9 0.8 0.4 0.4 0.6 0.9 0.3 0.5 0.5 1 0.2 0.6 0.3 1.2 0 0.1-0.1 0.2 0 0 0 0.1-0.1 0-0.2 0.1 0 0-0.1 0l-2.8 0.4h-0.1q-0.3 0-0.4-0.4 0-0.3-0.1-0.5-0.1-0.3-0.2-0.6-0.2-0.2-0.3-0.4-0.2-0.2-0.4-0.4-0.3-0.2-0.5-0.4-0.3-0.1-0.6-0.2-0.3-0.1-0.6-0.1-0.2-0.1-0.5 0-0.4-0.1-0.7 0-0.3 0.1-0.7 0.2-0.3 0.1-0.5 0.3-0.3 0.2-0.6 0.4-0.2 0.3-0.4 0.5-0.1 0.3-0.3 0.7-0.1 0.3-0.1 0.6-0.1 0.4-0.1 0.7v1.7q0 0 0 0 0 0 0.1 0.1 0 0 0 0 0.1 0 0.1 0h6.6q0 0 0.1 0 0 0 0.1 0 0 0 0 0.1 0.1 0 0.1 0 0 0.1 0 0.1 0 0 0 0.1 0 0 0 0.1 0 0 0 0l-0.4 1.3q0 0 0 0.1 0 0-0.1 0.1-0.1 0-0.1 0-0.1 0.1-0.2 0.1h-6.1q0 0-0.1 0 0 0 0 0 0 0-0.1 0.1 0 0 0 0v1.3q0 0.1 0 0.1 0.1 0 0.1 0 0 0.1 0 0.1 0.1 0 0.1 0h5.6q0 0 0 0 0.1 0 0.1 0 0 0 0.1 0 0 0.1 0 0.1 0.1 0 0.1 0.1 0 0 0 0.1 0 0 0 0 0 0.1 0 0.1l-0.4 1.2q0 0.1-0.1 0.1 0 0.1-0.1 0.2 0 0-0.1 0 0 0-0.1 0h-5.1q0 0-0.1 0 0 0 0 0.1-0.1 0-0.1 0 0 0.1 0 0.1v1.7q0 0.3 0.1 0.6 0 0.4 0.1 0.7 0.2 0.3 0.3 0.6 0.2 0.3 0.4 0.5 0.3 0.3 0.6 0.5 0.2 0.1 0.6 0.3 0.3 0.1 0.6 0.1 0.3 0.1 0.7 0.1 0.3 0 0.6 0 0.3-0.1 0.5-0.2 0.3-0.1 0.6-0.2 0.2-0.2 0.5-0.4z"/><path class="a" d="m28.9 24.6h68.1"/><path class="b" d="m97 26.2h-68.1c-0.4 0-0.9-0.1-1.2-0.5-0.3-0.3-0.5-0.7-0.5-1.1 0-0.5 0.2-0.9 0.5-1.2 0.3-0.3 0.8-0.5 1.2-0.5h68.1c0.4 0 0.8 0.2 1.1 0.5 0.4 0.3 0.5 0.7 0.5 1.2 0 0.4-0.1 0.8-0.5 1.1-0.3 0.4-0.7 0.5-1.1 0.5z"/><path class="a" d="m85.3 84.3q-0.7-1.8-2-3.3-1.3-1.4-3-2.4-1.7-0.9-3.6-1.3-2-0.3-3.9 0.1l-11.4 1.9c-0.2-4.4-2.6-7.1-7.6-8.8l-30.7-9.3q-0.3-0.1-0.6-0.1-0.4 0-0.7 0.2-0.3 0.2-0.5 0.4-0.2 0.3-0.3 0.6l-6.8 20.4q-0.1 0.3-0.1 0.6 0 0.4 0.1 0.7 0.2 0.3 0.4 0.5 0.2 0.2 0.5 0.4l25.3 10.6q0.8 0.4 1.7 0.8 0.9 0.4 1.7 0.7 0.9 0.2 1.8 0.4 1 0.3 1.9 0.4c3.5 0.2 7.7-1 17.1-4l19.7-7.2q0.3-0.1 0.6-0.4 0.2-0.2 0.4-0.5 0.1-0.3 0.1-0.7 0.1-0.3-0.1-0.6 0-0.1 0-0.1z"/><path fill-rule="evenodd" class="b" d="m48.5 99.5q-0.6 0-1.1-0.1h-0.1q-1-0.1-2-0.3-1-0.2-1.9-0.5-1-0.3-1.9-0.7-0.9-0.4-1.8-0.9l-25.2-10.6q-0.6-0.2-1.1-0.7-0.4-0.5-0.7-1-0.3-0.6-0.3-1.3 0-0.6 0.2-1.2l6.8-20.4q0.2-0.7 0.6-1.2 0.4-0.5 1-0.8 0.6-0.3 1.3-0.4 0.7 0 1.3 0.2l30.7 9.3c5 1.7 7.8 4.4 8.5 8.4l9.7-1.6q2.2-0.4 4.4 0 2.2 0.4 4.1 1.4 1.9 1.1 3.4 2.7 1.5 1.6 2.4 3.7 0 0 0 0 0 0 0 0.1 0 0 0 0 0.1 0.1 0.1 0.1 0 0 0 0.1 0.2 0.6 0.2 1.3 0 0.7-0.3 1.3-0.3 0.6-0.8 1.1-0.5 0.4-1.1 0.7l-19.8 7.2c-8.7 2.8-13.1 4.1-16.6 4.1zm-0.8-3.4c3.2 0.2 7.4-1 16.3-3.9l19.7-7.2q0 0 0.1 0 0 0 0 0 0 0 0 0 0 0 0 0v-0.1q-0.7-1.5-1.8-2.8-1.1-1.2-2.5-2-1.5-0.8-3.1-1.1-1.7-0.3-3.3 0l-11.4 1.9q-0.4 0.1-0.8 0-0.3-0.1-0.6-0.3-0.3-0.2-0.4-0.6-0.2-0.3-0.2-0.6c-0.1-3.7-2.1-5.9-6.4-7.3l-30.7-9.3q0 0 0 0 0 0 0 0 0 0 0 0 0 0-0.1 0l-6.8 20.4q0 0 0 0 0 0.1 0 0.1 0 0 0.1 0 0 0 0 0l25.3 10.6q0 0 0 0.1 0 0 0 0 0.1 0 0.1 0 0 0 0 0 0.8 0.4 1.5 0.8 0.8 0.3 1.6 0.6 0.8 0.2 1.7 0.4 0.8 0.2 1.7 0.3z"/><path class="a" d="m24.6 59.7q0-0.2 0-0.4 0-0.2 0-0.4-0.1-0.2-0.2-0.4-0.1-0.2-0.2-0.3c-2.8-3-14.6-4.9-18.2-5.3q-0.1-0.1-0.3-0.1-0.2 0.1-0.4 0.1-0.1 0-0.3 0.1-0.1 0.1-0.3 0.2-0.1 0.1-0.2 0.3-0.1 0.1-0.2 0.3-0.1 0.1-0.2 0.3 0 0.2 0 0.3l-2.4 31.2q0 0.4 0.1 0.7 0.1 0.4 0.3 0.6 0.2 0.3 0.5 0.4 0.3 0.2 0.7 0.2l10.4 0.8q0.3 0 0.5 0 0.3-0.1 0.5-0.2 0.3-0.2 0.4-0.4 0.2-0.2 0.3-0.5 1.4-3.3 2.7-6.7 1.3-3.4 2.5-6.9 1.1-3.4 2.1-6.9 1-3.5 1.9-7z"/><path fill-rule="evenodd" class="b" d="m13.8 90q-0.1 0-0.2 0l-10.4-0.8q-0.7-0.1-1.3-0.4-0.6-0.3-1.1-0.8-0.4-0.5-0.6-1.2-0.2-0.6-0.2-1.3l2.4-31.2q0-0.3 0.1-0.7 0.1-0.3 0.3-0.6 0.2-0.3 0.4-0.6 0.2-0.3 0.5-0.5 0.3-0.2 0.6-0.4 0.3-0.1 0.6-0.2 0.3-0.1 0.7-0.1 0.3-0.1 0.7 0c5.9 0.8 16.2 2.6 19.1 5.9q0.3 0.3 0.5 0.6 0.2 0.3 0.3 0.7 0.1 0.4 0.1 0.8 0 0.3-0.1 0.7 0 0.1 0 0.2-0.9 3.5-1.9 7-1 3.6-2.2 7.1-1.1 3.4-2.4 6.9-1.3 3.4-2.7 6.8-0.2 0.5-0.5 0.8-0.4 0.4-0.8 0.7-0.4 0.3-0.9 0.4-0.5 0.2-1 0.2zm-8-35.5q0 0 0 0 0 0 0 0 0 0 0 0 0 0 0 0 0 0 0 0-0.1 0-0.1 0 0 0.1 0 0.1 0 0 0 0l-2.4 31.2q0 0 0 0 0.1 0 0.1 0 0 0 0 0 0 0 0 0l10.4 0.8q0 0 0 0 0 0 0 0 0.1 0 0.1 0 0 0 0 0 1.4-3.3 2.6-6.7 1.3-3.3 2.5-6.7 1.1-3.4 2.1-6.9 1-3.5 1.8-6.9 0 0 0-0.1 0 0 0 0 0 0 0 0 0 0 0 0c-1.5-1.7-8.4-3.6-17.1-4.8z"/><path class="a" d="m39.6 75.2c0 0 14 4.5 15.3 4.8 1.3 0.3 9.1-1.1 9.1-1.1"/><path class="b" d="m55.4 81.7q-0.1 0-0.2 0-0.2 0-0.3 0-0.1 0-0.2 0-0.1 0-0.2 0c-1.3-0.3-14-4.4-15.4-4.9-0.4-0.1-0.7-0.4-0.9-0.8-0.2-0.4-0.3-0.9-0.1-1.3 0.1-0.4 0.4-0.8 0.8-1 0.4-0.2 0.8-0.2 1.2-0.1 5.4 1.7 14.1 4.5 15.1 4.8q1.1-0.1 2.2-0.2 1-0.1 2.1-0.3 1-0.1 2.1-0.3 1-0.2 2.1-0.4c0.4-0.1 0.8 0 1.2 0.3 0.4 0.2 0.6 0.6 0.7 1 0.1 0.5 0 0.9-0.3 1.3-0.2 0.4-0.6 0.6-1 0.7q-1.1 0.2-2.2 0.4-1.1 0.2-2.3 0.4-1.1 0.1-2.2 0.2-1.1 0.2-2.2 0.2z"/><path class="a" d="m37.3 100.4v0.1q-0.1 0.3-0.1 0.6 0.1 0.4 0.2 0.6 0.2 0.3 0.4 0.6 0.3 0.2 0.6 0.3l19.5 6.1c9.3 2.4 13.4 3.4 16.8 3q0.9-0.1 1.8-0.4 0.9-0.2 1.7-0.6 0.9-0.3 1.7-0.7 0.8-0.4 1.6-0.8l24.1-11.6q0.3-0.1 0.5-0.3 0.2-0.3 0.3-0.6 0.1-0.3 0.1-0.6 0-0.3-0.1-0.6l-7.5-19.5q-0.2-0.3-0.4-0.6-0.2-0.2-0.5-0.4-0.3-0.1-0.7-0.1-0.3 0-0.6 0.1l-29.4 10.5c-4.8 1.9-7 4.6-6.9 8.9l-11.2-1.4q-1.9-0.2-3.8 0.2-1.8 0.4-3.4 1.4-1.7 1-2.8 2.5-1.2 1.5-1.9 3.3z"/><path fill-rule="evenodd" class="b" d="m73.1 113.5c-3.3 0-7.6-1.1-15.6-3.2h-0.1l-19.5-6.1q-0.6-0.2-1.1-0.7-0.5-0.4-0.9-1-0.3-0.6-0.3-1.2-0.1-0.7 0.1-1.3 0-0.1 0-0.2 0.1 0 0.1 0 0 0 0-0.1 0 0 0 0 0 0 0-0.1 0.8-2 2.2-3.6 1.3-1.7 3.2-2.8 1.8-1.1 3.9-1.6 2.1-0.5 4.3-0.2l9.4 1.1c0.6-3.9 3.2-6.7 7.9-8.6h0.1l29.3-10.5q0.7-0.2 1.3-0.2 0.7 0 1.3 0.3 0.6 0.3 1 0.8 0.5 0.5 0.7 1.1l7.6 19.5q0.2 0.6 0.2 1.2 0 0.7-0.2 1.3-0.3 0.5-0.7 1-0.4 0.5-1 0.8l-24 11.4q-0.8 0.5-1.7 1-0.9 0.4-1.8 0.7-0.9 0.4-1.9 0.6-0.9 0.3-1.9 0.5 0 0-0.1 0-0.2 0-0.4 0-0.2 0-0.5 0.1-0.2 0-0.4 0-0.3 0-0.5 0zm-14.7-6.5c8.8 2.4 13 3.4 16.1 3q0.8-0.1 1.6-0.3 0.8-0.2 1.6-0.5 0.7-0.3 1.5-0.7 0.7-0.3 1.4-0.8 0.1 0 0.2-0.1l24-11.5c0 0 0.1 0 0.1 0l-7.6-19.5-29.4 10.5c-4.1 1.6-5.9 3.8-5.9 7.3q0 0.3-0.1 0.7-0.1 0.3-0.4 0.5-0.3 0.3-0.6 0.4-0.4 0.1-0.7 0.1l-11.2-1.4q-1.6-0.2-3.2 0.2-1.6 0.3-3 1.2-1.3 0.8-2.3 2.1-1 1.2-1.6 2.7 0 0.1 0 0.2l-0.5 1.5 0.5-1.6z"/><path class="a" d="m105.4 100q0.1 0.2 0.3 0.4 0.2 0.2 0.4 0.3 0.3 0.2 0.5 0.2 0.3 0.1 0.5 0l10.1-1.2q0.4-0.1 0.6-0.2 0.3-0.2 0.5-0.5 0.3-0.2 0.3-0.6 0.1-0.3 0.1-0.6l-3.8-30.2q0-0.2-0.1-0.4 0-0.1-0.1-0.3-0.1-0.1-0.2-0.3-0.2-0.1-0.3-0.2-0.1-0.1-0.3-0.2-0.1 0-0.3-0.1-0.2 0-0.4 0-0.1 0-0.3 0c-3.4 0.6-14.8 3-17.4 6q-0.1 0.2-0.2 0.4-0.1 0.1-0.1 0.3 0 0.2-0.1 0.4 0 0.2 0.1 0.4 1 3.4 2.1 6.7 1.2 3.4 2.5 6.7 1.2 3.3 2.7 6.5 1.4 3.3 2.9 6.5z"/><path fill-rule="evenodd" class="b" d="m106.9 102.6q-0.4 0-0.9-0.1-0.5-0.2-0.9-0.4-0.4-0.3-0.7-0.6-0.3-0.4-0.5-0.8-1.6-3.2-3-6.5-1.4-3.3-2.7-6.6-1.3-3.4-2.4-6.7-1.2-3.4-2.2-6.8 0-0.1 0-0.2-0.1-0.3-0.1-0.7 0-0.4 0.1-0.8 0.1-0.3 0.2-0.7 0.2-0.3 0.4-0.6c2.8-3.3 12.7-5.6 18.4-6.6q0.3-0.1 0.7-0.1 0.3 0 0.6 0.1 0.4 0.1 0.7 0.2 0.3 0.1 0.6 0.3 0.3 0.2 0.5 0.5 0.2 0.2 0.4 0.5 0.2 0.3 0.3 0.7 0.1 0.3 0.2 0.6l3.7 30.3q0.1 0.6 0 1.3-0.2 0.6-0.6 1.1-0.4 0.6-1 0.9-0.6 0.3-1.3 0.4l-10 1.3q-0.1 0-0.2 0 0 0-0.1 0 0 0-0.1 0 0 0-0.1 0zm-10.1-29.4q1 3.4 2.2 6.7 1.1 3.3 2.4 6.5 1.2 3.3 2.6 6.5 1.4 3.2 2.9 6.3v0.1q0 0 0 0 0 0 0 0 0 0 0 0 0 0 0 0l10.1-1.3-3.8-30.2q0 0 0 0 0-0.1 0-0.1 0 0 0 0 0 0 0 0c-8.4 1.6-15 3.8-16.4 5.5z"/><path class="a" d="m86.3 89c0 0-15 5.7-16.5 6.1-1.4 0.4-10-0.8-10-0.8"/><path class="b" d="m68.8 96.9q-1.2-0.1-2.3-0.2-1.2 0-2.3-0.2-1.2-0.1-2.3-0.2-1.2-0.2-2.3-0.3c-0.4-0.1-0.8-0.3-1.1-0.7-0.3-0.3-0.4-0.8-0.3-1.2 0-0.5 0.3-0.9 0.6-1.1 0.4-0.3 0.8-0.4 1.3-0.3q1.1 0.1 2.3 0.3 1.1 0.1 2.3 0.2 1.2 0.2 2.4 0.2 1.1 0.1 2.3 0.1c1.1-0.3 10.3-3.8 16.3-6 0.4-0.2 0.9-0.2 1.3 0 0.4 0.2 0.7 0.5 0.9 0.9 0.2 0.4 0.2 0.9 0 1.3-0.2 0.4-0.6 0.7-1 0.9-1.5 0.6-15.2 5.7-16.6 6.1q-0.2 0.1-0.4 0.1-0.2 0-0.4 0-0.1 0.1-0.3 0.1-0.2 0-0.4 0z"/><path class="a" d="m32.6 35c-7.3 0-13.1-5.9-13.1-13.2 0-7.2 5.8-13.1 13.1-13.1 7.3 0 13.2 5.9 13.2 13.1 0 7.3-5.9 13.2-13.2 13.2z"/><path fill-rule="evenodd" class="b" d="m32.6 36.7c-6 0-11.4-3.6-13.7-9.2-2.3-5.5-1-11.9 3.2-16.2 4.3-4.2 10.7-5.5 16.2-3.2 5.6 2.3 9.2 7.7 9.2 13.7 0 2-0.4 3.9-1.2 5.7-0.7 1.8-1.8 3.5-3.2 4.8-1.4 1.4-3 2.5-4.8 3.3-1.8 0.7-3.7 1.1-5.7 1.1zm0-26.4c-4.6 0-8.8 2.8-10.6 7.1-1.8 4.3-0.8 9.3 2.5 12.6 3.3 3.3 8.2 4.2 12.5 2.5 4.3-1.8 7.1-6 7.1-10.7 0-1.5-0.3-3-0.9-4.4-0.5-1.3-1.4-2.6-2.4-3.7-1.1-1.1-2.4-1.9-3.8-2.5-1.4-0.6-2.9-0.9-4.4-0.9z"/><path class="b" d="m34.3 25.3q0.1-0.1 0.2-0.2 0.1-0.1 0.2-0.2 0-0.1 0.1-0.3 0-0.1 0-0.2 0-0.1 0-0.1 0.1 0 0.1-0.1 0 0 0.1 0 0 0 0 0l1.4 0.3q0 0 0 0 0.1 0 0.1 0 0 0.1 0 0.1 0 0 0 0.1 0 0.2-0.1 0.5-0.1 0.3-0.2 0.5-0.2 0.2-0.4 0.4-0.1 0.2-0.3 0.4-0.3 0.2-0.6 0.3-0.2 0.1-0.5 0.2-0.3 0.1-0.6 0.1-0.3 0.1-0.6 0.1-0.2 0-0.4-0.1-0.2 0-0.5 0-0.2-0.1-0.4-0.2-0.2 0-0.4-0.1-0.2-0.1-0.3-0.2-0.2-0.2-0.4-0.3-0.1-0.1-0.2-0.3-0.2-0.2-0.3-0.4-0.1-0.1-0.1-0.3-0.1-0.3-0.2-0.5 0-0.2-0.1-0.4 0-0.2 0-0.4v-0.8q0 0 0 0 0 0 0 0 0 0 0 0 0 0 0 0h-1q-0.1 0-0.1 0 0-0.1 0-0.1-0.1 0-0.1 0 0-0.1 0-0.1v-0.6q0 0 0-0.1 0 0 0.1 0 0 0 0-0.1 0 0 0.1 0h1q0 0 0 0 0 0 0 0 0 0 0 0 0 0 0 0v-0.7q0 0 0 0 0 0 0 0 0 0 0 0 0 0 0 0h-1q-0.1 0-0.1-0.1 0 0 0 0-0.1 0-0.1-0.1 0 0 0 0v-0.6q0 0 0-0.1 0 0 0.1 0 0-0.1 0-0.1 0 0 0.1 0h1q0 0 0 0 0 0 0 0 0 0 0 0 0 0 0-0.1v-0.7q0-0.2 0-0.4 0.1-0.2 0.1-0.5 0.1-0.2 0.1-0.4 0.1-0.2 0.2-0.4 0.1-0.1 0.3-0.3 0.1-0.2 0.2-0.3 0.2-0.1 0.3-0.3 0.2-0.1 0.4-0.2 0.2-0.1 0.4-0.2 0.2 0 0.4-0.1 0.3 0 0.5-0.1 0.2 0 0.4 0 0.3 0 0.6 0.1 0.3 0 0.6 0.1 0.3 0.1 0.6 0.2 0.2 0.1 0.5 0.3 0.2 0.2 0.4 0.4 0.2 0.2 0.3 0.4 0.1 0.3 0.2 0.5 0.1 0.3 0.1 0.6 0 0 0 0.1 0 0 0 0 0 0-0.1 0.1 0 0 0 0l-1.4 0.2q-0.2 0-0.2-0.2 0-0.1 0-0.3-0.1-0.1-0.2-0.2 0-0.1-0.1-0.3-0.1-0.1-0.2-0.1-0.1-0.1-0.2-0.2-0.2-0.1-0.3-0.1-0.1-0.1-0.3-0.1-0.1 0-0.3 0-0.1 0-0.3 0-0.1 0.1-0.3 0.1-0.1 0.1-0.3 0.2-0.1 0.1-0.2 0.2-0.1 0.1-0.2 0.2-0.1 0.2-0.2 0.3 0 0.2 0 0.3-0.1 0.2 0 0.4v0.8q-0.1 0 0 0 0 0 0 0 0 0 0 0 0 0 0 0h3.2q0 0 0 0 0 0 0.1 0 0 0 0 0.1 0 0 0 0 0 0 0 0 0 0 0 0.1 0.1 0 0 0 0 0 0 0l-0.1 0.6q0 0-0.1 0.1 0 0 0 0 0 0-0.1 0.1 0 0 0 0h-3q0 0 0 0 0 0 0 0 0 0 0 0-0.1 0 0 0v0.7q-0.1 0 0 0 0 0 0 0 0 0 0 0 0 0 0 0h2.7q0 0 0.1 0 0 0.1 0 0.1 0 0 0 0.1 0.1 0 0 0l-0.1 0.6q-0.1 0.1-0.1 0.1 0 0 0 0 0 0.1-0.1 0.1 0 0 0 0h-2.5q0 0 0 0 0 0 0 0 0 0 0 0 0 0 0 0v0.8q-0.1 0.2 0 0.4 0 0.1 0.1 0.3 0 0.1 0.1 0.3 0.1 0.1 0.2 0.2 0.1 0.1 0.2 0.2 0.2 0.1 0.3 0.2 0.2 0 0.3 0.1 0.2 0 0.3 0 0.2 0 0.3 0 0.2-0.1 0.3-0.1 0.1 0 0.3-0.1 0.1-0.1 0.2-0.2z"/></svg>