<svg version="1.2" xmlns="http://www.w3.org/2000/svg" viewBox="0 0 121 121" width="121" height="121"><style>.a{fill:#bac4c6}.b{fill:#fff}.c{fill:#252b35}</style><path class="a" d="m66.1 56.2l-19.1-39.5c18.5-9 40.7-5.1 55.1 9.6 14.4 14.7 17.8 36.9 8.5 55.3-9.3 18.3-29.3 28.6-49.7 25.6-20.3-3-36.5-18.6-40.2-38.9l43.2-7.8q0.7-0.1 1.3-0.5 0.6-0.4 0.9-1.1 0.3-0.6 0.3-1.3 0-0.8-0.3-1.4z"/><path class="b" d="m45.7 15.6l20.5 41.2q0.3 0.5 0.3 1.1 0 0.6-0.3 1.1-0.3 0.5-0.7 0.9-0.5 0.3-1.1 0.4l-44.8 7.6q-0.5 0.1-1 0-0.5-0.2-0.9-0.4-0.4-0.3-0.6-0.8-0.3-0.4-0.4-0.9l-7.1-44.2q-0.1-0.5 0-1 0.1-0.5 0.4-0.9 0.3-0.4 0.7-0.6 0.5-0.3 1-0.3l31.5-4.6q0.3 0 0.7 0 0.4 0.1 0.7 0.3 0.4 0.2 0.7 0.4 0.2 0.3 0.4 0.7z"/><path class="b" d="m59.1 76.6h46.7l2.7 1.3 1 3-0.7 29.5-3.6 2-46.1-0.7-2.7-2v-3.6l0.4-28.2z"/><path fill-rule="evenodd" class="c" d="m111.1 108.1q0 1.1-0.5 2.2-0.4 1-1.2 1.8-0.8 0.8-1.8 1.2-1.1 0.5-2.2 0.5h-45.2q-1.1 0-2.1-0.5-1.1-0.4-1.9-1.2-0.8-0.8-1.2-1.8-0.4-1.1-0.4-2.2v-27.2q0-1.1 0.4-2.2 0.4-1 1.2-1.8 0.8-0.8 1.9-1.2 1-0.5 2.1-0.5h45.2q1.1 0 2.2 0.5 1 0.4 1.8 1.2 0.8 0.8 1.2 1.8 0.5 1.1 0.5 2.2zm-2.9-27.2q0-0.6-0.2-1.1-0.2-0.5-0.6-0.9-0.4-0.4-0.9-0.6-0.5-0.2-1.1-0.2h-45.2q-0.5 0-1.1 0.2-0.5 0.2-0.9 0.6-0.4 0.4-0.6 0.9-0.2 0.5-0.2 1.1v27.2q0 0.6 0.2 1.1 0.2 0.5 0.6 0.9 0.4 0.4 0.9 0.6 0.6 0.2 1.1 0.2h45.2q0.6 0 1.1-0.2 0.5-0.2 0.9-0.6 0.4-0.4 0.6-0.9 0.2-0.5 0.2-1.1z"/><path fill-rule="evenodd" class="c" d="m72 91.4q0 0.3-0.1 0.5-0.1 0.3-0.3 0.5-0.2 0.2-0.5 0.3-0.3 0.1-0.5 0.1h-9.4q-0.3 0-0.5-0.1-0.3-0.1-0.5-0.3-0.2-0.2-0.3-0.5-0.1-0.2-0.1-0.5v-9.4q0-0.2 0.1-0.5 0.1-0.3 0.3-0.5 0.2-0.2 0.5-0.3 0.2-0.1 0.5-0.1h9.4q0.2 0 0.5 0.1 0.3 0.1 0.5 0.3 0.2 0.2 0.3 0.5 0.1 0.3 0.1 0.5zm-9.4-1.5h6.5v-6.4h-6.5z"/><path class="c" d="m103.7 96.8h-42.5c-0.4 0-0.7 0.1-1 0.4-0.3 0.2-0.4 0.6-0.4 1 0 0.4 0.1 0.7 0.4 1 0.3 0.2 0.6 0.4 1 0.4h42.5c0.4 0 0.7-0.2 1-0.4 0.2-0.3 0.4-0.6 0.4-1 0-0.4-0.2-0.8-0.4-1-0.3-0.3-0.6-0.4-1-0.4z"/><path class="c" d="m103.7 102.6h-42.5c-0.4 0-0.7 0.1-1 0.4-0.3 0.3-0.4 0.6-0.4 1 0 0.4 0.1 0.7 0.4 1 0.3 0.3 0.6 0.4 1 0.4h42.5c0.4 0 0.7-0.1 1-0.4 0.2-0.3 0.4-0.6 0.4-1 0-0.4-0.2-0.7-0.4-1-0.3-0.3-0.6-0.4-1-0.4z"/><path class="b" d="m7.9 63.8l51.5-8.2-23.4-46.7v-0.1c-5.1 2.4-9.7 5.6-13.7 9.4-4 3.9-7.3 8.4-9.9 13.3-2.5 5-4.2 10.3-5 15.8-0.8 5.5-0.7 11.1 0.3 16.6z"/><path fill-rule="evenodd" class="c" d="m7.7 65.7q-0.4 0-0.7-0.1-0.3-0.1-0.5-0.3-0.3-0.2-0.4-0.5-0.2-0.3-0.2-0.6-0.2-1.2-0.4-2.4-0.2-1.2-0.3-2.4-0.1-1.2-0.1-2.3-0.1-1.2-0.1-2.4c0-5 0.7-9.9 2.1-14.7 1.4-4.8 3.4-9.3 6.1-13.5 2.7-4.2 5.9-8 9.6-11.2 3.8-3.3 7.9-6 12.4-8.1q0.2-0.1 0.5-0.2 0.3 0 0.5 0 0.3 0 0.5 0.1 0.2 0.2 0.4 0.3h0.1q0.1 0.1 0.1 0.2 0.1 0 0.2 0.1 0 0.1 0.1 0.2 0 0.1 0.1 0.1l23.4 46.8q0.1 0.4 0.1 0.9 0 0.4-0.2 0.8-0.2 0.4-0.5 0.6-0.4 0.3-0.8 0.3l-51.5 8.2h-0.1q-0.1 0-0.1 0.1-0.1 0-0.1 0-0.1 0-0.1 0-0.1 0-0.1 0zm27.5-54.5c-4.5 2.4-8.6 5.4-12.2 8.9-3.6 3.6-6.6 7.7-8.9 12.2-2.3 4.5-4 9.4-4.8 14.4-0.8 5-0.9 10-0.1 15.1l47.5-7.6z"/></svg>