<svg version="1.2" xmlns="http://www.w3.org/2000/svg" viewBox="0 0 121 121" width="121" height="121"><style>.a{fill:#bac4c6}.b{fill:#fff}.c{fill:#252b35}</style><path class="a" d="m104 93q1.1-1.8 2-3.7 0.8-2 1.4-4 0.5-2 0.8-4.1 0.3-2.1 0.3-4.2c0-13.3-26.6-44.5-29.6-48q-0.2-0.2-0.3-0.3-0.2-0.1-0.4-0.2-0.2-0.1-0.4-0.2-0.2 0-0.4 0h-16.6q-0.2 0-0.4 0-0.3 0.1-0.5 0.2-0.1 0.1-0.3 0.2-0.2 0.1-0.3 0.3c-3.1 3.5-29.7 34.7-29.7 48q0 2.1 0.3 4.2 0.3 2.1 0.9 4.1 0.6 2 1.4 4 0.8 1.9 1.9 3.7z"/><path class="a" d="m92.1 9.4c-3-3.4-10.8 1.1-15.3 4.1-0.8-3.1-4-6.5-8-6.5-4 0-6.9 3.7-7.5 6.5-4.5-3-12.3-7.5-15.3-4.1q-0.3 0.4-0.6 0.8-0.2 0.4-0.3 0.9-0.2 0.4-0.2 0.9-0.1 0.5 0 0.9c0 12.6 13.9 18.7 15.8 19q0.1 0.1 0.2 0.2 0.2 0.1 0.3 0.1 0.1 0.1 0.3 0.1 0.1 0 0.3 0h14.5q0.1 0 0.3 0 0.1 0 0.3-0.1 0.1 0 0.3-0.1 0.1-0.1 0.2-0.2c1.7-0.5 15.8-7.2 15.8-19q0.1-0.4 0-0.9 0-0.5-0.2-0.9-0.1-0.5-0.3-0.9-0.3-0.4-0.6-0.8z"/><path class="b" d="m73.4 69.1q0.3-0.2 0.5-0.5 0.3-0.3 0.5-0.6 0.1-0.3 0.2-0.7 0.2-0.3 0.2-0.7 0-0.1 0-0.1 0.1-0.1 0.2-0.2 0 0 0.1-0.1 0.1 0 0.2 0.1l3.5 0.6q0.1 0 0.2 0 0.1 0.1 0.2 0.1 0 0.1 0 0.2 0 0.1 0 0.2-0.1 0.7-0.3 1.4-0.2 0.7-0.6 1.3-0.4 0.6-0.8 1.1-0.5 0.5-1.1 1-0.6 0.4-1.3 0.8-0.7 0.3-1.4 0.5-0.7 0.2-1.5 0.3-0.8 0.1-1.5 0.1-0.6 0-1.2 0-0.6-0.1-1.1-0.2-0.6-0.2-1.1-0.4-0.6-0.2-1.1-0.4-0.5-0.3-0.9-0.6-0.5-0.3-0.8-0.7-0.4-0.3-0.8-0.7-0.3-0.5-0.6-0.9-0.2-0.5-0.4-1.1-0.2-0.5-0.4-1-0.1-0.6-0.2-1.2 0-0.5 0-1.1v-1.9q0 0 0-0.1-0.1 0-0.1 0 0-0.1 0-0.1-0.1 0-0.1 0h-2.5q-0.1 0-0.2 0-0.1-0.1-0.2-0.1 0-0.1-0.1-0.2 0-0.1 0-0.1v-1.6q0 0 0-0.1 0.1-0.1 0.1-0.2 0.1 0 0.2-0.1 0.1 0 0.2 0h2.5q0 0 0.1 0 0 0 0-0.1 0 0 0.1 0 0-0.1 0-0.1v-1.6q0-0.1 0-0.1-0.1 0-0.1-0.1 0 0 0 0-0.1 0-0.1 0h-2.5q-0.1 0-0.2-0.1-0.1 0-0.2-0.1 0 0-0.1-0.1 0-0.1 0-0.2v-1.5q0-0.1 0-0.2 0.1-0.1 0.1-0.1 0.1-0.1 0.2-0.1 0.1-0.1 0.2-0.1h2.5q0 0.1 0.1 0 0 0 0 0 0 0 0.1-0.1 0 0 0 0v-2q0-0.5 0-1.1 0.1-0.6 0.2-1.1 0.1-0.6 0.4-1.1 0.2-0.5 0.4-1 0.3-0.5 0.6-0.9 0.3-0.4 0.7-0.8 0.4-0.4 0.9-0.7 0.4-0.3 0.9-0.5 0.5-0.3 1-0.5 0.6-0.2 1.2-0.3 0.5-0.1 1.1-0.2 0.6-0.1 1.2 0 0.8-0.1 1.5 0 0.8 0.1 1.5 0.4 0.8 0.2 1.5 0.5 0.7 0.4 1.3 0.8 0.6 0.5 1.1 1 0.4 0.5 0.8 1.2 0.3 0.6 0.6 1.3 0.2 0.6 0.3 1.4 0 0.1-0.1 0.2 0 0.1-0.1 0.2 0 0-0.1 0.1-0.1 0-0.2 0l-3.5 0.5h-0.1q-0.3 0-0.4-0.5-0.1-0.3-0.2-0.7-0.1-0.3-0.3-0.6-0.2-0.3-0.4-0.6-0.2-0.3-0.5-0.5-0.3-0.2-0.6-0.4-0.3-0.2-0.7-0.3-0.3-0.1-0.7-0.1-0.4-0.1-0.7-0.1-0.4 0-0.8 0.1-0.5 0-0.8 0.2-0.4 0.1-0.8 0.4-0.3 0.2-0.6 0.5-0.3 0.3-0.5 0.7-0.2 0.3-0.4 0.7-0.1 0.4-0.2 0.9-0.1 0.4-0.1 0.8v2q0 0.1 0.1 0.1 0 0.1 0 0.1 0 0 0.1 0 0 0 0 0h8.3q0 0 0.1 0 0 0.1 0.1 0.1 0 0 0 0 0.1 0.1 0.1 0.1 0 0 0.1 0.1 0 0 0 0.1 0 0 0 0.1 0 0 0 0.1l-0.5 1.5q0 0.1-0.1 0.1 0 0.1-0.1 0.2-0.1 0-0.1 0-0.1 0.1-0.2 0.1h-7.7q0 0 0 0-0.1 0-0.1 0 0 0 0 0.1-0.1 0 0 0.1v1.6q-0.1 0 0 0.1 0 0 0 0 0 0.1 0.1 0.1 0 0 0 0h7q0 0 0.1 0 0 0 0 0 0.1 0 0.1 0.1 0.1 0 0.1 0 0 0.1 0 0.1 0.1 0.1 0.1 0.1 0 0.1 0 0.1 0 0.1-0.1 0.1l-0.4 1.5q0 0.1-0.1 0.2 0 0.1-0.1 0.1-0.1 0.1-0.2 0.1 0 0-0.1 0h-6.4q0 0 0 0-0.1 0-0.1 0.1 0 0 0 0-0.1 0.1 0 0.1v2.1q-0.1 0.4 0 0.8 0.1 0.4 0.2 0.8 0.2 0.4 0.4 0.8 0.2 0.4 0.5 0.7 0.3 0.3 0.6 0.5 0.4 0.2 0.8 0.4 0.4 0.1 0.8 0.2 0.4 0.1 0.8 0 0.4 0.1 0.7 0 0.4-0.1 0.7-0.2 0.4-0.1 0.7-0.3 0.4-0.2 0.6-0.4z"/><path class="b" d="m112.9 90c-0.8-1.5-1.8-2.9-3-4.1-1.3-1.2-2.7-2.2-4.2-2.9-1.6-0.8-3.3-1.2-5-1.4-1.7-0.1-3.5 0-5.1 0.4l-15 3.8c-0.7-5.8-4.2-9.2-11-10.9l-41.8-9.3q-0.4-0.1-0.9 0-0.4 0-0.8 0.3-0.4 0.2-0.7 0.6-0.2 0.4-0.3 0.8l-7 27.8q-0.1 0.5-0.1 0.9 0.1 0.4 0.3 0.8 0.2 0.4 0.6 0.7 0.3 0.3 0.7 0.4l34.7 11.6q1.2 0.5 2.3 0.9 1.2 0.4 2.4 0.7 1.3 0.3 2.5 0.5 1.2 0.1 2.5 0.2c4.7 0 10.2-2.1 22.3-7l25.5-11.6q0.4-0.2 0.8-0.6 0.3-0.3 0.4-0.7 0.2-0.5 0.2-0.9 0-0.5-0.2-0.9 0 0-0.1-0.1z"/><path fill-rule="evenodd" class="c" d="m64 113.6h-0.1q-1.3-0.1-2.6-0.3-1.3-0.1-2.6-0.5-1.3-0.3-2.6-0.7-1.2-0.4-2.4-1l-34.6-11.5q-0.8-0.2-1.4-0.7-0.6-0.5-1-1.2-0.3-0.7-0.4-1.5-0.1-0.7 0.1-1.5l6.9-27.8q0.2-0.8 0.7-1.5 0.5-0.6 1.1-1 0.7-0.5 1.5-0.6 0.8-0.1 1.6 0.1l41.8 9.2c6.9 1.7 10.7 5.1 12 10.5l13.1-3.3c1.9-0.5 3.8-0.6 5.7-0.4 1.9 0.1 3.7 0.6 5.5 1.4 1.7 0.8 3.3 1.9 4.7 3.2 1.4 1.3 2.5 2.8 3.4 4.5q0 0 0 0 0.1 0.1 0.1 0.1 0 0 0 0.1 0 0 0 0l0.1 0.2q0.3 0.7 0.4 1.5 0 0.8-0.3 1.6-0.3 0.8-0.8 1.4-0.6 0.6-1.3 0.9l-25.6 11.6c-12.4 5.1-18 7.2-23 7.2zm-36.7-46.3q-0.1 0-0.2 0.1 0 0-0.1 0-0.1 0.1-0.1 0.2-0.1 0-0.1 0.1l-7 27.9q0 0.1 0 0.2 0 0.1 0.1 0.2 0 0.1 0.1 0.1 0.1 0.1 0.2 0.1l34.7 11.6q0 0 0 0 0.1 0 0.1 0 0 0 0 0 0.1 0 0.1 0 1 0.5 2.1 0.9 1.1 0.4 2.2 0.6 1.2 0.3 2.3 0.5 1.2 0.1 2.3 0.2c4.4 0 10-2.1 21.6-6.9l25.5-11.6q0.1 0 0.1-0.1 0.1 0 0.1-0.1 0.1-0.1 0.1-0.2 0-0.1 0-0.2-0.1 0-0.1-0.1c-0.7-1.3-1.6-2.6-2.7-3.6-1.1-1.1-2.3-2-3.7-2.6-1.4-0.6-2.9-1-4.4-1.2-1.5-0.1-3 0-4.5 0.4l-15 3.7q-0.4 0.1-0.8 0.1-0.3-0.1-0.7-0.3-0.3-0.2-0.5-0.6-0.2-0.3-0.2-0.7c-0.6-5-3.5-7.8-9.6-9.4l-41.8-9.3q0 0 0 0 0 0 0 0 0 0-0.1 0 0 0 0 0z"/><path class="b" d="m29.6 63.4q0.1-0.2 0-0.5 0-0.3-0.1-0.5-0.1-0.3-0.2-0.5-0.2-0.2-0.4-0.4c-4-3.7-19.9-5-24.6-5.2q-0.3-0.1-0.5 0-0.2 0-0.5 0.1-0.2 0.1-0.4 0.2-0.2 0.1-0.4 0.3-0.1 0.1-0.3 0.3-0.1 0.2-0.2 0.5-0.1 0.2-0.2 0.4 0 0.2 0 0.5v41.7q0 0.5 0.2 0.9 0.1 0.5 0.5 0.8 0.3 0.3 0.7 0.5 0.5 0.2 0.9 0.2h13.9q0.4 0 0.8-0.2 0.3-0.1 0.6-0.3 0.3-0.2 0.5-0.5 0.2-0.3 0.3-0.6 1.6-4.6 3-9.3 1.3-4.7 2.5-9.4 1.2-4.7 2.2-9.4 0.9-4.8 1.7-9.6z"/><path fill-rule="evenodd" class="c" d="m4.1 104.5q-0.8 0-1.6-0.4-0.7-0.3-1.3-0.9-0.6-0.5-0.9-1.3-0.3-0.7-0.3-1.6v-41.7q0-0.4 0.1-0.9 0.1-0.4 0.2-0.8 0.2-0.3 0.5-0.7 0.2-0.3 0.5-0.6 0.3-0.3 0.7-0.5 0.3-0.2 0.7-0.4 0.4-0.1 0.8-0.2 0.4 0 0.8 0c7.9 0.4 21.7 1.8 25.8 5.7q0.4 0.4 0.6 0.7 0.3 0.4 0.5 0.9 0.1 0.4 0.2 0.9 0.1 0.4 0 0.9 0 0 0 0.1-0.8 4.8-1.8 9.6-1 4.8-2.2 9.6-1.2 4.7-2.5 9.4-1.4 4.7-3 9.3-0.2 0.6-0.5 1.2-0.4 0.5-1 0.9-0.5 0.4-1.1 0.6-0.6 0.2-1.3 0.2zm0.1-46.4q-0.1 0-0.1 0-0.1 0-0.1 0-0.1 0-0.1 0-0.1 0.1-0.1 0.1-0.1 0-0.1 0.1 0 0 0 0.1-0.1 0-0.1 0.1 0 0 0 0.1v41.7q0 0.2 0.1 0.2 0 0.1 0.1 0.2 0 0.1 0.1 0.1 0.1 0.1 0.2 0.1h14q0 0 0.1-0.1 0.1 0 0.2 0 0-0.1 0.1-0.1 0-0.1 0.1-0.2 1.5-4.5 2.8-9.2 1.4-4.6 2.6-9.2 1.1-4.7 2.1-9.4 1-4.7 1.8-9.5 0 0 0-0.1-0.1 0-0.1-0.1 0 0 0-0.1-0.1 0-0.1-0.1c-2.3-2.2-11.5-4-23.5-4.7z"/><path class="b" d="m53.7 32.5h31.2"/><path class="c" d="m84.9 34.3h-31.2c-0.5 0-0.9-0.2-1.3-0.5-0.3-0.4-0.5-0.8-0.5-1.3 0-0.5 0.2-0.9 0.5-1.3 0.4-0.3 0.8-0.5 1.3-0.5h31.2c0.5 0 0.9 0.2 1.3 0.5 0.3 0.4 0.5 0.8 0.5 1.3 0 0.5-0.2 0.9-0.5 1.3-0.4 0.3-0.8 0.5-1.3 0.5z"/><path class="b" d="m44.3 82.9c0 0 21.5 5.2 23.5 5.5 2 0.3 13.5-2.8 13.5-2.8"/><path class="c" d="m68 90.2q0 0-0.1 0 0 0-0.1 0-0.1 0-0.1 0-0.1 0-0.2 0c-2-0.3-21.4-5-23.6-5.5-0.4-0.2-0.8-0.5-1.1-0.9-0.2-0.4-0.3-0.8-0.2-1.3 0.1-0.5 0.4-0.9 0.8-1.1 0.4-0.2 0.9-0.3 1.4-0.2 8.6 2.1 21.9 5.2 23.3 5.4 1.1 0.1 7.5-1.3 12.7-2.7 0.5-0.2 1-0.1 1.4 0.1 0.4 0.3 0.7 0.7 0.8 1.1 0.1 0.5 0.1 1-0.2 1.4-0.2 0.4-0.6 0.7-1 0.8-3.4 0.9-11 2.9-13.8 2.9z"/><path class="b" d="m104.9 69.4c-7.5 0-13.6-6.1-13.6-13.7 0-7.5 6.1-13.6 13.6-13.6 7.5 0 13.6 6.1 13.6 13.6 0 7.6-6.1 13.7-13.6 13.7z"/><path fill-rule="evenodd" class="c" d="m104.9 71.2c-6.2 0-11.9-3.8-14.2-9.6-2.4-5.7-1.1-12.3 3.3-16.8 4.4-4.4 11-5.7 16.8-3.3 5.7 2.4 9.5 8 9.5 14.2 0 2.1-0.4 4.1-1.2 5.9-0.8 1.9-1.9 3.6-3.3 5-1.4 1.5-3.1 2.6-5 3.4-1.9 0.7-3.9 1.1-5.9 1.2zm0-27.3c-4.8 0-9.1 2.9-10.9 7.3-1.9 4.4-0.9 9.5 2.5 12.9 3.4 3.4 8.5 4.4 12.9 2.6 4.4-1.9 7.3-6.2 7.3-11 0-1.5-0.3-3-0.9-4.5-0.6-1.4-1.5-2.7-2.6-3.8-1.1-1.1-2.4-2-3.8-2.6-1.4-0.6-3-0.9-4.5-0.9z"/><path class="c" d="m106.6 59.3q0.1-0.1 0.2-0.2 0.1-0.1 0.2-0.2 0.1-0.1 0.1-0.3 0-0.1 0.1-0.2 0-0.1 0-0.1 0-0.1 0-0.1 0.1 0 0.1 0 0 0 0.1 0l1.4 0.2q0 0 0 0.1 0 0 0 0 0.1 0 0.1 0 0 0 0 0 0 0 0 0 0 0.1 0 0.1 0 0 0 0 0 0 0 0.1 0 0.2-0.1 0.5-0.1 0.3-0.2 0.5-0.2 0.3-0.4 0.5-0.2 0.2-0.4 0.3-0.2 0.2-0.5 0.4-0.3 0.1-0.6 0.2-0.3 0.1-0.6 0.1-0.3 0.1-0.6 0-0.2 0-0.4 0-0.3 0-0.5-0.1-0.2 0-0.4-0.1-0.3-0.1-0.5-0.2-0.1-0.1-0.3-0.2-0.2-0.1-0.3-0.3-0.2-0.1-0.3-0.3-0.2-0.1-0.3-0.3-0.1-0.2-0.2-0.4 0-0.2-0.1-0.5-0.1-0.2-0.1-0.4 0-0.2 0-0.5v-0.7q0 0 0 0 0-0.1 0-0.1 0 0 0 0-0.1 0-0.1 0h-1q0 0 0 0-0.1 0-0.1 0 0-0.1 0-0.1-0.1 0-0.1-0.1v-0.6q0 0 0.1 0 0-0.1 0-0.1 0 0 0.1 0 0-0.1 0-0.1h1q0 0 0.1 0 0 0 0 0 0 0 0 0 0 0 0 0v-0.7q0 0 0 0 0 0 0 0 0-0.1 0-0.1-0.1 0-0.1 0h-1q0 0 0 0-0.1 0-0.1 0 0 0 0-0.1-0.1 0-0.1 0v-0.6q0-0.1 0.1-0.1 0 0 0-0.1 0 0 0.1 0 0 0 0 0h1q0 0 0.1 0 0 0 0 0 0-0.1 0-0.1 0 0 0 0v-0.8q0-0.2 0-0.4 0-0.2 0.1-0.5 0.1-0.2 0.1-0.4 0.1-0.2 0.2-0.4 0.1-0.2 0.3-0.4 0.1-0.1 0.2-0.3 0.2-0.1 0.4-0.2 0.1-0.2 0.3-0.3 0.2-0.1 0.5-0.1 0.2-0.1 0.4-0.2 0.2 0 0.5 0 0.2-0.1 0.4-0.1 0.3 0 0.6 0.1 0.4 0 0.7 0.1 0.2 0.1 0.5 0.2 0.3 0.2 0.6 0.3 0.2 0.2 0.4 0.4 0.2 0.2 0.3 0.5 0.1 0.2 0.2 0.5 0.1 0.3 0.1 0.6 0 0 0 0.1 0 0 0 0 0 0-0.1 0.1 0 0 0 0l-1.4 0.2h-0.1q-0.1 0-0.1-0.2-0.1-0.1-0.1-0.3-0.1-0.1-0.1-0.2-0.1-0.2-0.2-0.3-0.1-0.1-0.2-0.2-0.1-0.1-0.2-0.1-0.2-0.1-0.3-0.1-0.1-0.1-0.3-0.1-0.1 0-0.3 0-0.1 0-0.3 0-0.2 0-0.3 0.1-0.2 0-0.3 0.1-0.1 0.1-0.3 0.2-0.1 0.2-0.2 0.3-0.1 0.2-0.1 0.3-0.1 0.2-0.1 0.3 0 0.2 0 0.4v0.8q0 0 0 0 0 0 0 0 0 0.1 0 0.1 0 0 0.1 0h3.2q0.1 0 0.1 0 0 0 0 0 0 0 0 0 0.1 0 0.1 0 0 0 0 0.1 0 0 0 0 0 0 0 0 0 0.1 0 0.1l-0.2 0.6q0 0 0 0 0 0.1-0.1 0.1 0 0 0 0-0.1 0-0.1 0h-3q-0.1 0-0.1 0 0 0 0 0.1 0 0 0 0 0 0 0 0v0.7q0 0 0 0 0 0 0 0 0 0 0 0 0 0 0.1 0h2.7q0 0 0.1 0 0 0 0 0.1 0 0 0 0 0 0 0.1 0 0 0 0 0 0 0.1 0 0.1 0 0 0 0 0 0 0 0.1l-0.2 0.6q0 0 0 0-0.1 0-0.1 0.1 0 0-0.1 0 0 0 0 0h-2.5q-0.1 0-0.1 0 0 0 0 0 0 0 0 0.1 0 0 0 0v0.8q0 0.2 0 0.3 0 0.2 0.1 0.4 0 0.1 0.1 0.3 0.1 0.1 0.2 0.2 0.2 0.2 0.3 0.2 0.1 0.1 0.3 0.2 0.1 0.1 0.3 0.1 0.2 0 0.3 0 0.2 0 0.3 0 0.2 0 0.3-0.1 0.2 0 0.3-0.1 0.1-0.1 0.2-0.2z"/></svg>